PathFileType	4	(X/Y/Z)	..\data\2014001\dynamic\2014001_C5_01.trc
DataRate	CameraRate	NumFrames	NumMarkers	Units	OrigDataRate	OrigDataStartFrame	OrigNumFrames
100.000000	100.000000	4	52	mm	100.000000	62	125
Frame#	Time	L_IAS			L_IPS			R_IPS			R_IAS			L_FTC			L_FLE			L_FME			L_FAX			L_TTC			L_FAL			L_TAM			L_FCC			L_FM1			L_FM2			L_FM5			R_FTC			R_FLE			R_FME			R_FAX			R_TTC			R_FAL			R_TAM			R_FCC			R_FM1			R_FM2			R_FM5			CV7			TV10			SXS			SJN			L_SIA			L_SRS			L_SAA			L_SAE			L_HLE			L_HME			L_UOA			L_RSP			L_UHE			L_HM2			L_HM5			R_SIA			R_SRS			R_SAA			R_SAE			R_HLE			R_HME			R_UOA			R_RSP			R_UHE			R_HM2			R_HM5			
		X1	Y1	Z1	X2	Y2	Z2	X3	Y3	Z3	X4	Y4	Z4	X5	Y5	Z5	X6	Y6	Z6	X7	Y7	Z7	X8	Y8	Z8	X9	Y9	Z9	X10	Y10	Z10	X11	Y11	Z11	X12	Y12	Z12	X13	Y13	Z13	X14	Y14	Z14	X15	Y15	Z15	X16	Y16	Z16	X17	Y17	Z17	X18	Y18	Z18	X19	Y19	Z19	X20	Y20	Z20	X21	Y21	Z21	X22	Y22	Z22	X23	Y23	Z23	X24	Y24	Z24	X25	Y25	Z25	X26	Y26	Z26	X27	Y27	Z27	X28	Y28	Z28	X29	Y29	Z29	X30	Y30	Z30	X31	Y31	Z31	X32	Y32	Z32	X33	Y33	Z33	X34	Y34	Z34	X35	Y35	Z35	X36	Y36	Z36	X37	Y37	Z37	X38	Y38	Z38	X39	Y39	Z39	X40	Y40	Z40	X41	Y41	Z41	X42	Y42	Z42	X43	Y43	Z43	X44	Y44	Z44	X45	Y45	Z45	X46	Y46	Z46	X47	Y47	Z47	X48	Y48	Z48	X49	Y49	Z49	X50	Y50	Z50	X51	Y51	Z51	X52	Y52	Z52	

63	0.62	934.4937744140627	883.643249511719	-338.4490356445313	768.713562011719	928.7413330078127	-245.9213867187501	774.6014404296877	929.419372558594	-155.5664520263672	954.6960449218752	889.5172119140627	-102.9292297363282	855.5198974609377	796.4938964843752	-385.0608215332032	959.5361328125002	453.997528076172	-377.7816772460938	992.2877197265627	439.4741821289064	-261.2697448730469	921.9016723632815	405.7886962890626	-380.3475952148438	976.3750000000002	360.6049194335938	-341.5816345214844	743.3475952148439	141.2756958007813	-331.7725524902344	780.9956665039065	131.784912109375	-249.2156066894532	694.1632080078126	119.1181106567383	-279.1163024902344	856.0017089843752	42.13932800292969	-295.3948974609376	850.8760986328127	58.44748306274415	-350.8042297363282	798.538269042969	67.17323303222658	-379.6399536132813	867.3763427734377	794.2498168945315	-32.94193649291993	877.082702636719	439.9424133300782	-86.15417480468751	879.8001708984377	434.5521545410157	-206.5592346191407	853.884704589844	374.4227600097657	-84.37473297119142	913.7242431640627	367.5942077636719	-139.6457672119141	793.5967407226565	69.14162445068361	-138.7291564941407	828.9848632812502	86.17367553710939	-224.136947631836	749.1954956054689	28.38314628601075	-194.9722442626954	937.0195312500002	26.88946723937989	-210.0820312500001	940.4993286132815	39.89719390869141	-145.9033966064453	880.9610595703127	26.30560684204102	-100.9181594848633	772.5183105468752	1385.13623046875	-198.1693725585938	734.0228271484376	1146.516845703125	-198.3995666503907	968.2561035156252	1184.260986328125	-226.2832031250001	911.2419433593752	1341.790771484375	-215.3936767578126	720.3546752929689	1195.537353515625	-296.9139404296876	726.3746337890626	1329.5166015625	-287.3076782226563	801.1823730468752	1331.694458007813	-397.2297363281251	837.5102539062502	1345.920166015625	-386.8851928710939	818.3374633789065	1083.941040039063	-505.2252197265626	793.0733032226565	1035.846923828125	-437.6109008789064	788.6887817382815	1040.02490234375	-490.187469482422	969.5068969726565	879.8743896484377	-476.5671691894532	930.1568603515627	864.8581542968752	-543.6940307617189	1028.9228515625	820.7362060546877	-489.8552246093751	952.7112426757815	791.1429443359377	-551.8446655273439	746.7807617187501	1192.9833984375	-77.34573364257814	751.4248657226564	1315.092651367188	-104.7912673950196	842.358581542969	1328.78466796875	-13.81771564483643	887.519226074219	1338.562744140625	-34.13608932495118	930.0263671875002	1044.630004882813	64.27050018310548	891.5195312500002	1013.324279785156	-2.809476852416993	901.599304199219	1008.676086425781	44.70550918579102	1097.543334960938	894.5784301757815	4.229251861572267	1064.444458007813	868.5755615234377	73.74903106689455	1173.895751953125	847.491882324219	18.13680458068848	1101.524536132813	799.5214843750002	73.98062133789064	
64	0.63	956.0635375976565	884.647155761719	-337.3912963867188	789.6245727539065	929.6723632812502	-245.9143829345704	795.1817626953127	930.3926391601565	-155.6182556152344	974.1470947265627	888.890075683594	-101.8094940185547	877.3992309570315	797.9798583984377	-384.9490356445314	991.8025512695315	457.9131774902345	-376.6283569335938	1025.669921875	445.0137023925782	-260.9006958007813	956.8706665039065	407.119110107422	-378.9206237792969	1014.413635253906	365.4652404785157	-340.8687438964844	799.0381469726565	129.1568450927735	-331.0549926757813	837.7409667968752	122.23095703125	-248.9111480712891	751.5096435546876	102.2769165039063	-278.5319824218751	920.7141723632815	40.24108886718751	-296.6122131347657	914.0474243164065	56.87412261962892	-351.8198242187501	860.7763671875002	60.67808914184572	-380.1899108886719	884.782409667969	794.5712890625002	-32.44023513793946	879.8758544921877	440.1274414062501	-84.81007385253908	883.105407714844	434.1877746582032	-205.1892852783204	855.3481445312502	374.7869262695313	-83.17578125000001	915.481872558594	367.1007995605469	-137.9319458007813	793.6516723632815	69.63216400146486	-138.4471282958985	829.4245605468752	86.85213470458986	-223.5149688720704	749.4302368164064	29.28308868408204	-195.0476684570313	936.8086547851565	27.32043647766114	-209.3675689697266	940.2333984375002	39.82515716552735	-145.1990966796875	880.6323242187502	25.71450996398926	-100.4880065917969	794.0337524414065	1385.488647460938	-197.7686462402344	754.5036010742189	1147.390625	-197.6745758056641	989.6177978515627	1184.868896484375	-226.0278930664063	932.443786621094	1342.525756835938	-215.2982788085938	741.3020629882814	1196.557495117188	-295.9610290527344	747.7316284179689	1330.171997070313	-286.5511474609376	822.1085205078127	1332.50146484375	-396.4888305664064	858.4566040039065	1346.495849609375	-386.5816955566407	834.3069458007815	1084.819580078125	-504.0780334472657	807.714050292969	1038.03369140625	-435.998992919922	803.0947875976565	1042.815185546875	-488.0765075683595	972.2735595703127	870.728210449219	-482.5083312988282	929.7847900390627	859.687194824219	-548.7715454101564	1025.677734375	806.216735839844	-497.6773986816407	945.9372558593752	784.3956298828127	-558.3445434570314	768.7283325195315	1193.944091796875	-76.03116607666017	772.509704589844	1315.691650390625	-104.1581344604492	863.8394775390627	1329.726928710938	-13.69344711303711	908.5895996093752	1339.672241210938	-34.33831405639649	958.848327636719	1047.05615234375	63.22901535034181	920.583679199219	1014.868408203125	-3.637798070907594	931.1230468750002	1010.102966308594	43.93638229370118	1131.545288085938	905.2198486328127	-2.406361103057862	1101.411010742188	876.9849853515627	67.53189086914064	1210.292846679688	861.326599121094	8.816306114196779	1141.73583984375	809.4863281250002	65.8707962036133	
65	0.64	977.8627929687502	884.669372558594	-336.1397094726563	810.568786621094	929.7393188476565	-246.3026733398438	815.6022949218752	930.5803833007815	-156.0575866699219	993.3955078125002	887.5734863281252	-100.499870300293	899.5975341796877	798.5159912109377	-385.053680419922	1022.963500976563	460.9423217773439	-375.4871215820313	1058.0419921875	449.7741699218751	-260.6605529785157	991.0927734375002	407.6068420410157	-377.5428771972657	1051.575317382813	369.9778747558594	-340.1894226074219	856.1928710937502	117.5790557861328	-330.2874450683594	895.6821289062502	113.5429077148438	-248.5530700683594	810.8455810546877	86.3377151489258	-277.8670654296876	985.585388183594	39.7337875366211	-297.1820373535157	977.3681640625002	56.25933074951173	-352.2532653808594	923.7099609375002	55.0797462463379	-380.3236694335938	901.773132324219	794.4443969726565	-31.96203231811524	882.9919433593752	440.4080505371095	-83.53433990478517	886.7547607421877	433.8743896484376	-203.8546905517579	857.228210449219	375.2943115234376	-82.07176208496095	917.593200683594	366.6735839843751	-136.343734741211	793.844909667969	70.27484130859376	-138.2760009765625	830.0485839843752	87.56838989257814	-223.0266876220704	749.7019042968751	30.46724700927735	-195.2372436523438	936.7434692382815	27.53645706176759	-208.6670227050782	940.1011962890627	39.63622283935548	-144.4589385986328	880.3098144531252	25.13251495361329	-100.0814285278321	815.6253662109377	1385.034545898438	-197.3730010986329	775.0454711914065	1147.425659179688	-197.0837860107422	1011.117980957031	1184.675048828125	-225.687484741211	953.7670898437502	1342.421508789063	-215.1597137451172	762.4483642578126	1196.679931640625	-295.0473327636719	769.2767333984377	1329.916381835938	-285.8230590820313	843.2416992187502	1332.494262695313	-395.813201904297	879.6691894531252	1346.234252929688	-386.3067321777345	850.3049316406252	1084.998168945313	-502.9783935546876	822.4663696289065	1039.502807617188	-434.464813232422	817.6421508789065	1044.967895507813	-486.0019531250001	974.3755493164065	862.118347167969	-488.3550720214845	929.1994628906252	855.3475341796877	-553.7283935546876	1021.395141601563	792.834167480469	-505.2322998046876	939.039245605469	779.0466308593752	-564.7072753906251	790.7456054687502	1193.94482421875	-74.8574676513672	793.6633300781252	1315.437377929688	-103.5445098876953	885.2266845703127	1329.812622070313	-13.5391960144043	929.5992431640627	1340.002685546875	-34.46077346801759	987.5208129882815	1048.873901367188	62.20729064941408	949.6317138671877	1015.802551269531	-4.493570804595948	960.660827636719	1010.934387207031	43.11617279052735	1165.010375976563	915.6959228515627	-9.090043067932131	1137.9560546875	885.3757324218752	61.16728591918947	1245.904052734375	875.0926513671877	-0.6551543474197389	1181.357055664063	819.566833496094	57.45276260375978	
66	0.65	999.8414306640627	883.6848754882815	-334.7307434082032	831.5379028320315	928.8889770507815	-247.0660400390626	835.8265380859377	929.955993652344	-156.8901977539063	1012.426818847656	885.582702636719	-99.01734924316409	922.0833129882815	798.0181274414065	-385.3313903808595	1053.078002929688	462.9658508300782	-374.3569641113282	1089.376831054688	453.6302795410157	-260.4871520996094	1024.623413085938	407.2381896972657	-376.2217712402344	1087.824096679688	374.0853881835938	-339.5217895507813	914.6492919921877	106.9941864013672	-329.5466918945313	954.5693969726565	106.1297073364258	-248.1880035400391	871.970886230469	71.78945922851564	-277.2040405273438	1050.353149414063	40.96920013427735	-297.2077331542969	1040.645629882813	56.98808670043947	-352.2115173339844	987.1882934570315	50.83794403076173	-380.1421203613282	918.3537597656252	793.8798828125002	-31.531644821167	886.6143188476565	440.7537841796876	-82.37110137939455	890.9617309570315	433.5903930664064	-202.6053161621094	859.6941528320315	375.9264221191407	-81.10707092285158	920.2261352539065	366.2878723144532	-134.9221954345703	794.193542480469	71.10934448242189	-138.2342376708985	830.8638916015627	88.35808563232423	-222.7021179199219	750.0170898437501	31.97346496582032	-195.5335235595704	936.8583984375002	27.57610511779786	-208.0094909667969	940.1426391601565	39.39508819580079	-143.7115325927735	880.039978027344	24.63086891174317	-99.71320343017581	837.307312011719	1383.791015625	-196.9885406494141	795.6748046875002	1146.616577148438	-196.6573791503907	1032.745971679688	1183.636108398438	-225.2747955322266	975.2339477539065	1341.4462890625	-214.986557006836	783.7897949218752	1195.879760742188	-294.1806640625001	791.020202636719	1328.748291015625	-285.1433715820313	864.589050292969	1331.654296875	-395.2285766601564	901.1619873046877	1345.117553710938	-386.0814514160157	866.2854003906252	1084.454711914063	-501.9433898925782	837.3181152343752	1040.208984375	-433.0318908691407	832.294128417969	1046.445434570313	-483.997772216797	975.9847412109377	854.115905761719	-494.069793701172	928.574645996094	851.8074340820315	-558.5053710937501	1016.394714355469	780.725769042969	-512.5171508789064	932.281677246094	775.0509033203127	-570.8719482421876	812.8123779296877	1192.987548828125	-73.86846160888673	814.9244384765627	1314.344116210938	-102.9559097290039	906.5786132812502	1329.023071289063	-13.34589290618897	950.6191406250002	1339.522094726563	-34.51472091674805	1016.042358398438	1050.02880859375	61.22459411621095	978.6390380859377	1016.074645996094	-5.337169647216798	990.2333984375002	1011.116943359375	42.26592254638673	1197.897094726563	925.9334716796877	-15.78373432159424	1174.036376953125	893.6878051757815	54.69964599609376	1280.690551757813	888.7305297851565	-10.20942974090576	1220.33544921875	829.7138671875002	48.79415130615236	
